<svg width="200" height="200" viewBox="0 0 200 200" fill="none" xmlns="http://www.w3.org/2000/svg">
<rect x="14.2148" y="14.2134" width="20.3045" height="20.3045" fill="white"/>
<rect x="14.2148" y="165.481" width="20.3045" height="20.3045" fill="white"/>
<rect x="165.48" y="14.2134" width="20.3045" height="20.3045" fill="white"/>
<path fill-rule="evenodd" clip-rule="evenodd" d="M48.7308 0H0V48.7308H48.7308V0ZM41.6255 7.61418H7.61517V41.6242H41.6255V7.61418Z" fill="white"/>
<path fill-rule="evenodd" clip-rule="evenodd" d="M48.7308 151.269H0V199.999H48.7308V151.269ZM41.6255 158.375H7.61517V192.385H41.6255V158.375Z" fill="white"/>
<path fill-rule="evenodd" clip-rule="evenodd" d="M200 0H151.27V48.7308H200V0ZM192.387 7.61418H158.377V41.6242H192.387V7.61418Z" fill="white"/>
<path d="M61.9258 0H83.2455V7.10657H61.9258V0Z" fill="white"/>
<path d="M89.3398 0H96.4464V7.10657H89.3398V0Z" fill="white"/>
<path d="M61.9258 14.2134H83.2455V21.32H61.9258V14.2134Z" fill="white"/>
<path d="M54.8203 21.3198H61.9269V34.5177H54.8203V21.3198Z" fill="white"/>
<path d="M69.0352 21.3198H83.2483V28.4264H69.0352V21.3198Z" fill="white"/>
<path d="M61.9258 34.5176H69.0324V41.6242H61.9258V34.5176Z" fill="white"/>
<path d="M54.8203 41.624H61.9269V48.7306H54.8203V41.624Z" fill="white"/>
<path d="M61.9258 48.731H69.0324V61.9289H61.9258V48.731Z" fill="white"/>
<path d="M69.0352 54.8223H76.1417V69.0354H69.0352V54.8223Z" fill="white"/>
<path d="M61.9258 69.0352H69.0324V76.1417H61.9258V69.0352Z" fill="white"/>
<path d="M76.1406 69.0352H90.3538V76.1417H76.1406V69.0352Z" fill="white"/>
<path d="M69.0352 76.1421H83.2483V83.2487H69.0352V76.1421Z" fill="white"/>
<path d="M34.5195 83.2485H76.1437V89.3399H34.5195V83.2485Z" fill="white"/>
<path d="M34.5195 89.3398H41.6261V96.4464H34.5195V89.3398Z" fill="white"/>
<path d="M48.7305 89.3398H76.1415V96.4464H48.7305V89.3398Z" fill="white"/>
<path d="M41.625 96.4463H48.7316V103.553H41.625V96.4463Z" fill="white"/>
<path d="M48.7305 103.553H55.837V110.659H48.7305V103.553Z" fill="white"/>
<path d="M61.9258 110.66H69.0324V117.766H61.9258V110.66Z" fill="white"/>
<path d="M55.8359 117.766H61.9273V123.857H55.8359V117.766Z" fill="white"/>
<path d="M69.0352 117.766H76.1417V123.857H69.0352V117.766Z" fill="white"/>
<path d="M76.1406 130.964H83.2472V144.162H76.1406V130.964Z" fill="white"/>
<path d="M83.25 123.857H109.646V130.964H83.25V123.857Z" fill="white"/>
<path d="M96.4492 130.964H116.754V138.07H96.4492V130.964Z" fill="white"/>
<path d="M103.555 138.071H110.661V158.375H103.555V138.071Z" fill="white"/>
<path d="M89.3398 151.269H103.553V158.375H89.3398V151.269Z" fill="white"/>
<path d="M83.25 144.162H96.4479V151.269H83.25V144.162Z" fill="white"/>
<path d="M83.25 158.375H96.4479V164.466H83.25V158.375Z" fill="white"/>
<path d="M69.0352 164.466H96.4462V171.573H69.0352V164.466Z" fill="white"/>
<path d="M54.8203 144.162H76.14V151.269H54.8203V144.162Z" fill="white"/>
<path d="M54.8203 151.269H61.9269V158.375H54.8203V151.269Z" fill="white"/>
<path d="M54.8203 158.375H69.0335V164.466H54.8203V158.375Z" fill="white"/>
<path d="M69.0352 151.269H76.1417V158.375H69.0352V151.269Z" fill="white"/>
<path d="M61.9258 171.573H76.1389V178.679H61.9258V171.573Z" fill="white"/>
<path d="M61.9258 178.68H89.3368V185.786H61.9258V178.68Z" fill="white"/>
<path d="M103.555 192.893H123.859V199.999H103.555V192.893Z" fill="white"/>
<path d="M116.75 178.68H123.857V185.786H116.75V178.68Z" fill="white"/>
<path d="M103.555 171.573H110.661V185.786H103.555V171.573Z" fill="white"/>
<path d="M123.859 185.786H130.966V192.893H123.859V185.786Z" fill="white"/>
<path d="M130.965 192.893H138.071V199.999H130.965V192.893Z" fill="white"/>
<path d="M138.07 178.68H145.177V185.786H138.07V178.68Z" fill="white"/>
<path d="M145.18 171.573H152.286V178.679H145.18V171.573Z" fill="white"/>
<path d="M191.875 185.786H198.982V192.893H191.875V185.786Z" fill="white"/>
<path d="M145.18 192.893H158.378V199.999H145.18V192.893Z" fill="white"/>
<path d="M164.465 192.893H171.571V199.999H164.465V192.893Z" fill="white"/>
<path d="M178.676 192.893H185.782V199.999H178.676V192.893Z" fill="white"/>
<path d="M171.574 185.786H185.787V192.893H171.574V185.786Z" fill="white"/>
<path d="M152.281 178.68H191.875V185.786H152.281V178.68Z" fill="white"/>
<path d="M54.8203 185.786H61.9269V192.893H54.8203V185.786Z" fill="white"/>
<path d="M54.8203 192.893H69.0335V199.999H54.8203V192.893Z" fill="white"/>
<path d="M69.0352 185.786H83.2483V192.893H69.0352V185.786Z" fill="white"/>
<path d="M76.1406 192.893H83.2472V199.999H76.1406V192.893Z" fill="white"/>
<path d="M61.9258 123.857H76.1389V130.964H61.9258V123.857Z" fill="white"/>
<path d="M48.7305 130.964H69.035V138.07H48.7305V130.964Z" fill="white"/>
<path d="M41.625 138.071H69.0361V144.162H41.625V138.071Z" fill="white"/>
<path d="M28.4258 117.766H35.5324V123.857H28.4258V117.766Z" fill="white"/>
<path d="M28.4258 103.553H41.6237V110.659H28.4258V103.553Z" fill="white"/>
<path d="M34.5195 110.66H55.8393V117.766H34.5195V110.66Z" fill="white"/>
<path d="M14.2148 110.66H28.428V117.766H14.2148V110.66Z" fill="white"/>
<path d="M35.5352 123.857H48.7331V130.964H35.5352V123.857Z" fill="white"/>
<path d="M7.10547 123.857H21.3186V130.964H7.10547V123.857Z" fill="white"/>
<path d="M21.3203 130.964H41.6248V138.07H21.3203V130.964Z" fill="white"/>
<path d="M21.3203 138.071H28.4269V144.162H21.3203V138.071Z" fill="white"/>
<path d="M55.8359 96.4463H62.9425V103.553H55.8359V96.4463Z" fill="white"/>
<path d="M69.0352 96.4463H76.1417V103.553H69.0352V96.4463Z" fill="white"/>
<path d="M48.7305 61.9287H61.9284V69.0353H48.7305V61.9287Z" fill="white"/>
<path d="M8.12109 61.9287H20.3038V69.0353H8.12109V61.9287Z" fill="white"/>
<path d="M20.3047 69.0352H34.5178V76.1417H20.3047V69.0352Z" fill="white"/>
<path d="M27.4141 76.1421H34.5206V83.2487H27.4141V76.1421Z" fill="white"/>
<path d="M7.10547 75.1265H14.212V82.233H7.10547V75.1265Z" fill="white"/>
<path d="M0 82.2334H7.10657V89.34H0V82.2334Z" fill="white"/>
<path d="M0 109.645H7.10657V144.162H0V109.645Z" fill="white"/>
<path d="M0 96.4463H7.10657V103.553H0V96.4463Z" fill="white"/>
<path d="M7.10547 89.3398H14.212V103.553H7.10547V89.3398Z" fill="white"/>
<path d="M14.2148 82.2334H21.3214V96.4465H14.2148V82.2334Z" fill="white"/>
<path d="M34.5195 54.8223H55.8393V61.9288H34.5195V54.8223Z" fill="white"/>
<path d="M0 54.8223H14.2131V61.9288H0V54.8223Z" fill="white"/>
<path d="M41.625 69.0352H55.8381V76.1417H41.625V69.0352Z" fill="white"/>
<path d="M48.7305 76.1421H61.9284V83.2487H48.7305V76.1421Z" fill="white"/>
<path d="M69.0352 28.4263H76.1417V48.7308H69.0352V28.4263Z" fill="white"/>
<path d="M103.555 0H110.661V7.10657H103.555V0Z" fill="white"/>
<path d="M116.75 0H130.963V7.10657H116.75V0Z" fill="white"/>
<path d="M116.75 7.10645H123.857V14.213H116.75V7.10645Z" fill="white"/>
<path d="M137.055 7.10645H144.161V14.213H137.055V7.10645Z" fill="white"/>
<path d="M129.949 14.2134H144.162V21.32H129.949V14.2134Z" fill="white"/>
<path d="M129.949 21.3198H144.162V28.4264H129.949V21.3198Z" fill="white"/>
<path d="M110.66 27.4111H137.056V34.5177H110.66V27.4111Z" fill="white"/>
<path d="M116.75 20.3047H123.857V27.4113H116.75V20.3047Z" fill="white"/>
<path d="M137.055 34.5176H144.161V55.8373H137.055V34.5176Z" fill="white"/>
<path d="M123.859 41.624H130.966V48.7306H123.859V41.624Z" fill="white"/>
<path d="M109.645 34.5176H123.858V41.6242H109.645V34.5176Z" fill="white"/>
<path d="M96.4492 7.10645H103.556V14.213H96.4492V7.10645Z" fill="white"/>
<path d="M76.1406 7.10645H89.3385V14.213H76.1406V7.10645Z" fill="white"/>
<path d="M96.4492 21.3198H103.556V28.4264H96.4492V21.3198Z" fill="white"/>
<path d="M83.25 28.4263H96.4479V34.5176H83.25V28.4263Z" fill="white"/>
<path d="M90.3555 34.5176H103.553V41.6242H90.3555V34.5176Z" fill="white"/>
<path d="M96.4492 41.624H103.556V48.7306H96.4492V41.624Z" fill="white"/>
<path d="M83.25 41.624H90.3566V61.9285H83.25V41.624Z" fill="white"/>
<path d="M90.3555 48.731H96.4468V55.8375H90.3555V48.731Z" fill="white"/>
<path d="M96.4492 55.8374H103.556V69.0353H96.4492V55.8374Z" fill="white"/>
<path d="M96.4492 76.1421H103.556V116.751H96.4492V76.1421Z" fill="white"/>
<path d="M89.3398 82.2334H96.4464V110.66H89.3398V82.2334Z" fill="white"/>
<path d="M103.555 82.2334H110.661V89.34H103.555V82.2334Z" fill="white"/>
<path d="M103.555 96.4463H110.661V110.659H103.555V96.4463Z" fill="white"/>
<path d="M110.66 89.3398H116.752V96.4464H110.66V89.3398Z" fill="white"/>
<path d="M116.75 82.2334H123.857V103.553H116.75V82.2334Z" fill="white"/>
<path d="M109.645 103.553H116.751V123.857H109.645V103.553Z" fill="white"/>
<path d="M116.75 116.751H123.857V130.964H116.75V116.751Z" fill="white"/>
<path d="M123.859 123.857H130.966V130.964H123.859V123.857Z" fill="white"/>
<path d="M130.965 116.751H138.071V144.162H130.965V116.751Z" fill="white"/>
<path d="M138.07 116.751H145.177V171.573H138.07V116.751Z" fill="white"/>
<path d="M145.18 130.964H151.271V144.162H145.18V130.964Z" fill="white"/>
<path d="M151.266 117.766H158.372V130.964H151.266V117.766Z" fill="white"/>
<path d="M151.266 103.553H158.372V110.659H151.266V103.553Z" fill="white"/>
<path d="M158.375 110.66H165.482V123.858H158.375V110.66Z" fill="white"/>
<path d="M172.586 110.66H178.677V116.751H172.586V110.66Z" fill="white"/>
<path d="M165.48 103.553H172.587V110.659H165.48V103.553Z" fill="white"/>
<path d="M172.586 96.4463H178.677V103.553H172.586V96.4463Z" fill="white"/>
<path d="M165.48 89.3398H172.587V96.4464H165.48V89.3398Z" fill="white"/>
<path d="M172.586 75.1265H179.693V82.233H172.586V75.1265Z" fill="white"/>
<path d="M191.875 82.2334H198.982V96.4465H191.875V82.2334Z" fill="white"/>
<path d="M178.676 96.4463H185.782V123.857H178.676V96.4463Z" fill="white"/>
<path d="M184.77 89.3398H191.876V96.4464H184.77V89.3398Z" fill="white"/>
<path d="M191.875 103.553H198.982V110.659H191.875V103.553Z" fill="white"/>
<path d="M191.875 123.857H198.982V130.964H191.875V123.857Z" fill="white"/>
<path d="M171.574 123.857H178.681V130.964H171.574V123.857Z" fill="white"/>
<path d="M151.266 137.055H165.479V144.162H151.266V137.055Z" fill="white"/>
<path d="M178.676 137.055H198.98V144.162H178.676V137.055Z" fill="white"/>
<path d="M172.586 144.162H178.677V151.269H172.586V144.162Z" fill="white"/>
<path d="M172.586 151.269H185.784V157.36H172.586V151.269Z" fill="white"/>
<path d="M172.586 171.573H185.784V178.679H172.586V171.573Z" fill="white"/>
<path d="M172.586 165.481H179.693V171.573H172.586V165.481Z" fill="white"/>
<path d="M184.77 157.36H191.876V164.466H184.77V157.36Z" fill="white"/>
<path d="M191.875 164.466H198.982V178.679H191.875V164.466Z" fill="white"/>
<path d="M145.18 164.466H165.484V171.573H145.18V164.466Z" fill="white"/>
<path d="M151.266 151.269H158.372V158.375H151.266V151.269Z" fill="white"/>
<path d="M116.75 151.269H138.07V158.375H116.75V151.269Z" fill="white"/>
<path d="M123.859 164.466H138.073V171.573H123.859V164.466Z" fill="white"/>
<path d="M123.859 144.162H130.966V151.269H123.859V144.162Z" fill="white"/>
<path d="M165.48 116.751H172.587V171.573H165.48V116.751Z" fill="white"/>
<path d="M185.785 116.751H198.983V123.858H185.785V116.751Z" fill="white"/>
<path d="M158.375 61.9287H165.482V69.0353H158.375V61.9287Z" fill="white"/>
<path d="M165.48 54.8223H172.587V69.0354H165.48V54.8223Z" fill="white"/>
<path d="M172.586 54.8223H178.677V61.9288H172.586V54.8223Z" fill="white"/>
<path d="M178.676 61.9287H192.889V69.0353H178.676V61.9287Z" fill="white"/>
<path d="M158.375 75.1265H165.482V89.3396H158.375V75.1265Z" fill="white"/>
<path d="M151.266 82.2334H158.372V96.4465H151.266V82.2334Z" fill="white"/>
<path d="M123.859 89.3398H151.27V96.4464H123.859V89.3398Z" fill="white"/>
<path d="M123.859 103.553H144.164V110.659H123.859V103.553Z" fill="white"/>
<path d="M137.055 96.4463H144.161V103.553H137.055V96.4463Z" fill="white"/>
<path d="M137.055 69.0352H144.161V89.3397H137.055V69.0352Z" fill="white"/>
<path d="M144.164 61.9287H151.271V82.2332H144.164V61.9287Z" fill="white"/>
<path d="M129.949 75.1265H137.056V82.233H129.949V75.1265Z" fill="white"/>
<path d="M116.75 54.8223H123.857V76.142H116.75V54.8223Z" fill="white"/>
<path d="M123.859 54.8223H130.966V69.0354H123.859V54.8223Z" fill="white"/>
<path d="M130.965 54.8223H137.056V69.0354H130.965V54.8223Z" fill="white"/>
<path d="M82.2344 89.3398H89.3409V96.4464H82.2344V89.3398Z" fill="white"/>
<path d="M82.2344 103.553H89.3409V116.751H82.2344V103.553Z" fill="white"/>
<path d="M103.555 48.731H109.646V76.142H103.555V48.731Z" fill="white"/>
<path d="M109.645 41.624H116.751V54.8219H109.645V41.624Z" fill="white"/>
<path d="M103.555 14.2134H110.661V34.5179H103.555V14.2134Z" fill="white"/>
</svg>
