<svg width="96" height="96" viewBox="0 0 96 96" fill="none" xmlns="http://www.w3.org/2000/svg">
<rect x="6.82422" y="6.82227" width="9.74619" height="9.74619" fill="#A600A8"/>
<rect x="6.82422" y="79.4316" width="9.74619" height="9.74619" fill="#A600A8"/>
<rect x="79.4297" y="6.82227" width="9.74619" height="9.74619" fill="#A600A8"/>
<path fill-rule="evenodd" clip-rule="evenodd" d="M23.3909 0H0V23.3909H23.3909V0ZM19.9791 3.6547H3.65404V19.9796H19.9791V3.6547Z" fill="#A600A8"/>
<path fill-rule="evenodd" clip-rule="evenodd" d="M23.3909 72.6089H0V95.9998H23.3909V72.6089ZM19.9791 76.0202H3.65404V92.3451H19.9791V76.0202Z" fill="#A600A8"/>
<path fill-rule="evenodd" clip-rule="evenodd" d="M96.0002 0H72.6094V23.3909H96.0002V0ZM92.3453 3.6547H76.0202V19.9796H92.3453V3.6547Z" fill="#A600A8"/>
<path d="M29.7266 0H39.9601V3.41117H29.7266V0Z" fill="#A600A8"/>
<path d="M42.8828 0H46.294V3.41117H42.8828V0Z" fill="#A600A8"/>
<path d="M29.7266 6.82227H39.9601V10.2334H29.7266V6.82227Z" fill="#A600A8"/>
<path d="M26.3164 10.2334H29.7276V16.5684H26.3164V10.2334Z" fill="#A600A8"/>
<path d="M33.1367 10.2334H39.9591V13.6446H33.1367V10.2334Z" fill="#A600A8"/>
<path d="M29.7266 16.5684H33.1377V19.9795H29.7266V16.5684Z" fill="#A600A8"/>
<path d="M26.3164 19.9795H29.7276V23.3907H26.3164V19.9795Z" fill="#A600A8"/>
<path d="M29.7266 23.3911H33.1377V29.7261H29.7266V23.3911Z" fill="#A600A8"/>
<path d="M33.1367 26.3145H36.5479V33.1368H33.1367V26.3145Z" fill="#A600A8"/>
<path d="M29.7266 33.1367H33.1377V36.5479H29.7266V33.1367Z" fill="#A600A8"/>
<path d="M36.5469 33.1367H43.3692V36.5479H36.5469V33.1367Z" fill="#A600A8"/>
<path d="M33.1367 36.5479H39.9591V39.959H33.1367V36.5479Z" fill="#A600A8"/>
<path d="M16.5703 39.959H36.55V42.8828H16.5703V39.959Z" fill="#A600A8"/>
<path d="M16.5703 42.8833H19.9815V46.2945H16.5703V42.8833Z" fill="#A600A8"/>
<path d="M23.3906 42.8833H36.548V46.2945H23.3906V42.8833Z" fill="#A600A8"/>
<path d="M19.9805 46.2944H23.3916V49.7056H19.9805V46.2944Z" fill="#A600A8"/>
<path d="M23.3906 49.7056H26.8018V53.1167H23.3906V49.7056Z" fill="#A600A8"/>
<path d="M29.7266 53.1167H33.1377V56.5279H29.7266V53.1167Z" fill="#A600A8"/>
<path d="M26.8008 56.5278H29.7246V59.4517H26.8008V56.5278Z" fill="#A600A8"/>
<path d="M33.1367 56.5278H36.5479V59.4517H33.1367V56.5278Z" fill="#A600A8"/>
<path d="M36.5469 62.8633H39.958V69.1983H36.5469V62.8633Z" fill="#A600A8"/>
<path d="M39.9609 59.4521H52.631V62.8633H39.9609V59.4521Z" fill="#A600A8"/>
<path d="M46.293 62.8633H56.0392V66.2744H46.293V62.8633Z" fill="#A600A8"/>
<path d="M49.707 66.2744H53.1182V76.0206H49.707V66.2744Z" fill="#A600A8"/>
<path d="M42.8828 72.6089H49.7051V76.0201H42.8828V72.6089Z" fill="#A600A8"/>
<path d="M39.9609 69.1978H46.296V72.6089H39.9609V69.1978Z" fill="#A600A8"/>
<path d="M39.9609 76.0205H46.296V78.9444H39.9609V76.0205Z" fill="#A600A8"/>
<path d="M33.1367 78.9438H46.2941V82.355H33.1367V78.9438Z" fill="#A600A8"/>
<path d="M26.3164 69.1978H36.5499V72.6089H26.3164V69.1978Z" fill="#A600A8"/>
<path d="M26.3164 72.6089H29.7276V76.0201H26.3164V72.6089Z" fill="#A600A8"/>
<path d="M26.3164 76.0205H33.1387V78.9444H26.3164V76.0205Z" fill="#A600A8"/>
<path d="M33.1367 72.6089H36.5479V76.0201H33.1367V72.6089Z" fill="#A600A8"/>
<path d="M29.7266 82.355H36.5489V85.7661H29.7266V82.355Z" fill="#A600A8"/>
<path d="M29.7266 85.7666H42.8839V89.1778H29.7266V85.7666Z" fill="#A600A8"/>
<path d="M49.707 92.5889H59.4532V96H49.707V92.5889Z" fill="#A600A8"/>
<path d="M56.0391 85.7666H59.4502V89.1778H56.0391V85.7666Z" fill="#A600A8"/>
<path d="M49.707 82.355H53.1182V89.1773H49.707V82.355Z" fill="#A600A8"/>
<path d="M59.4531 89.1777H62.8643V92.5889H59.4531V89.1777Z" fill="#A600A8"/>
<path d="M62.8633 92.5889H66.2744V96H62.8633V92.5889Z" fill="#A600A8"/>
<path d="M66.2734 85.7666H69.6846V89.1778H66.2734V85.7666Z" fill="#A600A8"/>
<path d="M69.6836 82.355H73.0948V85.7661H69.6836V82.355Z" fill="#A600A8"/>
<path d="M92.1016 89.1777H95.5127V92.5889H92.1016V89.1777Z" fill="#A600A8"/>
<path d="M69.6836 92.5889H76.0186V96H69.6836V92.5889Z" fill="#A600A8"/>
<path d="M78.9453 92.5889H82.3565V96H78.9453V92.5889Z" fill="#A600A8"/>
<path d="M85.7656 92.5889H89.1768V96H85.7656V92.5889Z" fill="#A600A8"/>
<path d="M82.3555 89.1777H89.1778V92.5889H82.3555V89.1777Z" fill="#A600A8"/>
<path d="M73.0977 85.7666H92.1027V89.1778H73.0977V85.7666Z" fill="#A600A8"/>
<path d="M26.3164 89.1777H29.7276V92.5889H26.3164V89.1777Z" fill="#A600A8"/>
<path d="M26.3164 92.5889H33.1387V96H26.3164V92.5889Z" fill="#A600A8"/>
<path d="M33.1367 89.1777H39.9591V92.5889H33.1367V89.1777Z" fill="#A600A8"/>
<path d="M36.5469 92.5889H39.958V96H36.5469V92.5889Z" fill="#A600A8"/>
<path d="M29.7266 59.4521H36.5489V62.8633H29.7266V59.4521Z" fill="#A600A8"/>
<path d="M23.3906 62.8633H33.1368V66.2744H23.3906V62.8633Z" fill="#A600A8"/>
<path d="M19.9805 66.2744H33.1378V69.1983H19.9805V66.2744Z" fill="#A600A8"/>
<path d="M13.6445 56.5278H17.0557V59.4517H13.6445V56.5278Z" fill="#A600A8"/>
<path d="M13.6445 49.7056H19.9796V53.1167H13.6445V49.7056Z" fill="#A600A8"/>
<path d="M16.5703 53.1167H26.8038V56.5279H16.5703V53.1167Z" fill="#A600A8"/>
<path d="M6.82422 53.1167H13.6466V56.5279H6.82422V53.1167Z" fill="#A600A8"/>
<path d="M17.0547 59.4521H23.3897V62.8633H17.0547V59.4521Z" fill="#A600A8"/>
<path d="M3.41016 59.4521H10.2325V62.8633H3.41016V59.4521Z" fill="#A600A8"/>
<path d="M10.2344 62.8633H19.9806V66.2744H10.2344V62.8633Z" fill="#A600A8"/>
<path d="M10.2344 66.2744H13.6455V69.1983H10.2344V66.2744Z" fill="#A600A8"/>
<path d="M26.8008 46.2944H30.2119V49.7056H26.8008V46.2944Z" fill="#A600A8"/>
<path d="M33.1367 46.2944H36.5479V49.7056H33.1367V46.2944Z" fill="#A600A8"/>
<path d="M23.3906 29.7256H29.7257V33.1368H23.3906V29.7256Z" fill="#A600A8"/>
<path d="M3.89844 29.7256H9.74615V33.1368H3.89844V29.7256Z" fill="#A600A8"/>
<path d="M9.74609 33.1367H16.5684V36.5479H9.74609V33.1367Z" fill="#A600A8"/>
<path d="M13.1562 36.5479H16.5674V39.959H13.1562V36.5479Z" fill="#A600A8"/>
<path d="M3.41016 36.061H6.82132V39.4722H3.41016V36.061Z" fill="#A600A8"/>
<path d="M0 39.4722H3.41117V42.8833H0V39.4722Z" fill="#A600A8"/>
<path d="M0 52.6294H3.41117V69.1979H0V52.6294Z" fill="#A600A8"/>
<path d="M0 46.2944H3.41117V49.7056H0V46.2944Z" fill="#A600A8"/>
<path d="M3.41016 42.8833H6.82132V49.7056H3.41016V42.8833Z" fill="#A600A8"/>
<path d="M6.82422 39.4722H10.2354V46.2945H6.82422V39.4722Z" fill="#A600A8"/>
<path d="M16.5703 26.3145H26.8038V29.7256H16.5703V26.3145Z" fill="#A600A8"/>
<path d="M0 26.3145H6.82234V29.7256H0V26.3145Z" fill="#A600A8"/>
<path d="M19.9805 33.1367H26.8028V36.5479H19.9805V33.1367Z" fill="#A600A8"/>
<path d="M23.3906 36.5479H29.7257V39.959H23.3906V36.5479Z" fill="#A600A8"/>
<path d="M33.1367 13.645H36.5479V23.3912H33.1367V13.645Z" fill="#A600A8"/>
<path d="M49.707 0H53.1182V3.41117H49.707V0Z" fill="#A600A8"/>
<path d="M56.0391 0H62.8614V3.41117H56.0391V0Z" fill="#A600A8"/>
<path d="M56.0391 3.41113H59.4502V6.8223H56.0391V3.41113Z" fill="#A600A8"/>
<path d="M65.7852 3.41113H69.1963V6.8223H65.7852V3.41113Z" fill="#A600A8"/>
<path d="M62.375 6.82227H69.1973V10.2334H62.375V6.82227Z" fill="#A600A8"/>
<path d="M62.375 10.2334H69.1973V13.6446H62.375V10.2334Z" fill="#A600A8"/>
<path d="M53.1172 13.1572H65.7872V16.5684H53.1172V13.1572Z" fill="#A600A8"/>
<path d="M56.0391 9.74609H59.4502V13.1573H56.0391V9.74609Z" fill="#A600A8"/>
<path d="M65.7852 16.5684H69.1963V26.8019H65.7852V16.5684Z" fill="#A600A8"/>
<path d="M59.4531 19.9795H62.8643V23.3907H59.4531V19.9795Z" fill="#A600A8"/>
<path d="M52.6289 16.5684H59.4512V19.9795H52.6289V16.5684Z" fill="#A600A8"/>
<path d="M46.293 3.41113H49.7041V6.8223H46.293V3.41113Z" fill="#A600A8"/>
<path d="M36.5469 3.41113H42.8819V6.8223H36.5469V3.41113Z" fill="#A600A8"/>
<path d="M46.293 10.2334H49.7041V13.6446H46.293V10.2334Z" fill="#A600A8"/>
<path d="M39.9609 13.645H46.296V16.5689H39.9609V13.645Z" fill="#A600A8"/>
<path d="M43.3711 16.5684H49.7061V19.9795H43.3711V16.5684Z" fill="#A600A8"/>
<path d="M46.293 19.9795H49.7041V23.3907H46.293V19.9795Z" fill="#A600A8"/>
<path d="M39.9609 19.9795H43.3721V29.7257H39.9609V19.9795Z" fill="#A600A8"/>
<path d="M43.3711 23.3911H46.295V26.8023H43.3711V23.3911Z" fill="#A600A8"/>
<path d="M46.293 26.8022H49.7041V33.1373H46.293V26.8022Z" fill="#A600A8"/>
<path d="M46.293 36.5479H49.7041V56.0402H46.293V36.5479Z" fill="#A600A8"/>
<path d="M42.8828 39.4722H46.294V53.1168H42.8828V39.4722Z" fill="#A600A8"/>
<path d="M49.707 39.4722H53.1182V42.8833H49.707V39.4722Z" fill="#A600A8"/>
<path d="M49.707 46.2944H53.1182V53.1168H49.707V46.2944Z" fill="#A600A8"/>
<path d="M53.1172 42.8833H56.041V46.2945H53.1172V42.8833Z" fill="#A600A8"/>
<path d="M56.0391 39.4722H59.4502V49.7057H56.0391V39.4722Z" fill="#A600A8"/>
<path d="M52.6289 49.7056H56.0401V59.4518H52.6289V49.7056Z" fill="#A600A8"/>
<path d="M56.0391 56.041H59.4502V62.8634H56.0391V56.041Z" fill="#A600A8"/>
<path d="M59.4531 59.4521H62.8643V62.8633H59.4531V59.4521Z" fill="#A600A8"/>
<path d="M62.8633 56.041H66.2744V69.1984H62.8633V56.041Z" fill="#A600A8"/>
<path d="M66.2734 56.041H69.6846V82.3557H66.2734V56.041Z" fill="#A600A8"/>
<path d="M69.6836 62.8633H72.6075V69.1983H69.6836V62.8633Z" fill="#A600A8"/>
<path d="M72.6094 56.5278H76.0205V62.8629H72.6094V56.5278Z" fill="#A600A8"/>
<path d="M72.6094 49.7056H76.0205V53.1167H72.6094V49.7056Z" fill="#A600A8"/>
<path d="M76.0195 53.1167H79.4307V59.4517H76.0195V53.1167Z" fill="#A600A8"/>
<path d="M82.8438 53.1167H85.7676V56.0406H82.8438V53.1167Z" fill="#A600A8"/>
<path d="M79.4297 49.7056H82.8409V53.1167H79.4297V49.7056Z" fill="#A600A8"/>
<path d="M82.8438 46.2944H85.7676V49.7056H82.8438V46.2944Z" fill="#A600A8"/>
<path d="M79.4297 42.8833H82.8409V46.2945H79.4297V42.8833Z" fill="#A600A8"/>
<path d="M82.8438 36.061H86.2549V39.4722H82.8438V36.061Z" fill="#A600A8"/>
<path d="M92.1016 39.4722H95.5127V46.2945H92.1016V39.4722Z" fill="#A600A8"/>
<path d="M85.7656 46.2944H89.1768V59.4518H85.7656V46.2944Z" fill="#A600A8"/>
<path d="M88.6914 42.8833H92.1026V46.2945H88.6914V42.8833Z" fill="#A600A8"/>
<path d="M92.1016 49.7056H95.5127V53.1167H92.1016V49.7056Z" fill="#A600A8"/>
<path d="M92.1016 59.4521H95.5127V62.8633H92.1016V59.4521Z" fill="#A600A8"/>
<path d="M82.3555 59.4521H85.7666V62.8633H82.3555V59.4521Z" fill="#A600A8"/>
<path d="M72.6094 65.7866H79.4317V69.1978H72.6094V65.7866Z" fill="#A600A8"/>
<path d="M85.7656 65.7866H95.5118V69.1978H85.7656V65.7866Z" fill="#A600A8"/>
<path d="M82.8438 69.1978H85.7676V72.6089H82.8438V69.1978Z" fill="#A600A8"/>
<path d="M82.8438 72.6089H89.1788V75.5327H82.8438V72.6089Z" fill="#A600A8"/>
<path d="M82.8438 82.355H89.1788V85.7661H82.8438V82.355Z" fill="#A600A8"/>
<path d="M82.8438 79.4316H86.2549V82.3555H82.8438V79.4316Z" fill="#A600A8"/>
<path d="M88.6914 75.5327H92.1026V78.9439H88.6914V75.5327Z" fill="#A600A8"/>
<path d="M92.1016 78.9438H95.5127V85.7662H92.1016V78.9438Z" fill="#A600A8"/>
<path d="M69.6836 78.9438H79.4298V82.355H69.6836V78.9438Z" fill="#A600A8"/>
<path d="M72.6094 72.6089H76.0205V76.0201H72.6094V72.6089Z" fill="#A600A8"/>
<path d="M56.0391 72.6089H66.2726V76.0201H56.0391V72.6089Z" fill="#A600A8"/>
<path d="M59.4531 78.9438H66.2755V82.355H59.4531V78.9438Z" fill="#A600A8"/>
<path d="M59.4531 69.1978H62.8643V72.6089H59.4531V69.1978Z" fill="#A600A8"/>
<path d="M79.4297 56.041H82.8409V82.3557H79.4297V56.041Z" fill="#A600A8"/>
<path d="M89.1758 56.041H95.5108V59.4522H89.1758V56.041Z" fill="#A600A8"/>
<path d="M76.0195 29.7256H79.4307V33.1368H76.0195V29.7256Z" fill="#A600A8"/>
<path d="M79.4297 26.3145H82.8409V33.1368H79.4297V26.3145Z" fill="#A600A8"/>
<path d="M82.8438 26.3145H85.7676V29.7256H82.8438V26.3145Z" fill="#A600A8"/>
<path d="M85.7656 29.7256H92.588V33.1368H85.7656V29.7256Z" fill="#A600A8"/>
<path d="M76.0195 36.061H79.4307V42.8834H76.0195V36.061Z" fill="#A600A8"/>
<path d="M72.6094 39.4722H76.0205V46.2945H72.6094V39.4722Z" fill="#A600A8"/>
<path d="M59.4531 42.8833H72.6105V46.2945H59.4531V42.8833Z" fill="#A600A8"/>
<path d="M59.4531 49.7056H69.1993V53.1167H59.4531V49.7056Z" fill="#A600A8"/>
<path d="M65.7852 46.2944H69.1963V49.7056H65.7852V46.2944Z" fill="#A600A8"/>
<path d="M65.7852 33.1367H69.1963V42.8829H65.7852V33.1367Z" fill="#A600A8"/>
<path d="M69.1992 29.7256H72.6104V39.4718H69.1992V29.7256Z" fill="#A600A8"/>
<path d="M62.375 36.061H65.7862V39.4722H62.375V36.061Z" fill="#A600A8"/>
<path d="M56.0391 26.3145H59.4502V36.548H56.0391V26.3145Z" fill="#A600A8"/>
<path d="M59.4531 26.3145H62.8643V33.1368H59.4531V26.3145Z" fill="#A600A8"/>
<path d="M62.8633 26.3145H65.7871V33.1368H62.8633V26.3145Z" fill="#A600A8"/>
<path d="M39.4727 42.8833H42.8838V46.2945H39.4727V42.8833Z" fill="#A600A8"/>
<path d="M39.4727 49.7056H42.8838V56.0406H39.4727V49.7056Z" fill="#A600A8"/>
<path d="M49.707 23.3911H52.6309V36.5485H49.707V23.3911Z" fill="#A600A8"/>
<path d="M52.6289 19.9795H56.0401V26.3145H52.6289V19.9795Z" fill="#A600A8"/>
<path d="M49.707 6.82227H53.1182V16.5685H49.707V6.82227Z" fill="#A600A8"/>
</svg>
