<?xml version="1.0" encoding="utf-8"?><svg viewBox="0 0 240 240" xmlns="http://www.w3.org/2000/svg" xmlns:xlink="http://www.w3.org/1999/xlink"><style>:root>svg{display:none}:root>svg:target{display:block}</style><svg viewBox="0 0 240 240" id="play" xmlns="http://www.w3.org/2000/svg"><g filter="url(#aa)"><circle cx="120" cy="120" r="120" fill-opacity=".1"/></g><path d="M100 106.868c0-12.764 0-19.147 4.122-21.431 4.122-2.285 9.534 1.098 20.358 7.863l17.811 11.132c9.743 6.089 14.615 9.134 14.615 13.568 0 4.434-4.872 7.479-14.615 13.568L124.48 142.7c-10.824 6.765-16.236 10.148-20.358 7.863C100 148.279 100 141.896 100 129.132v-22.264Z"/><defs><filter id="aa" x="-40" y="-40" width="320" height="320" filterUnits="userSpaceOnUse" color-interpolation-filters="sRGB"><feFlood flood-opacity="0" result="BackgroundImageFix"/><feGaussianBlur in="BackgroundImageFix" stdDeviation="20"/><feComposite in2="SourceAlpha" operator="in" result="effect1_backgroundBlur_4023_1748"/><feBlend in="SourceGraphic" in2="effect1_backgroundBlur_4023_1748" result="shape"/></filter></defs></svg><svg viewBox="0 0 45 69" id="pointer" xmlns="http://www.w3.org/2000/svg"><g filter="url(#ba)" fill-rule="evenodd" clip-rule="evenodd"><path d="M14.962 0s.775 30.626-1.5 45.138c-1.368 8.72-7.397 15.576-11.991 19.66-1.498 1.331-.582 3.984 1.41 3.763 8.654-.957 23.975-3.994 37.14-13.62C59.637 40.595 14.962 0 14.962 0Z"/><path d="M14.962 0s.775 30.626-1.5 45.138c-1.368 8.72-7.397 15.576-11.991 19.66-1.498 1.331-.582 3.984 1.41 3.763 8.654-.957 23.975-3.994 37.14-13.62C59.637 40.595 14.962 0 14.962 0Z" fill-opacity=".9"/></g><defs><filter id="ba" x="-39.273" y="-40" width="124.273" height="148.574" filterUnits="userSpaceOnUse" color-interpolation-filters="sRGB"><feFlood flood-opacity="0" result="BackgroundImageFix"/><feGaussianBlur in="BackgroundImageFix" stdDeviation="20"/><feComposite in2="SourceAlpha" operator="in" result="effect1_backgroundBlur_4023_1390"/><feBlend in="SourceGraphic" in2="effect1_backgroundBlur_4023_1390" result="shape"/></filter></defs></svg><svg viewBox="0 0 200 200" id="qr" xmlns="http://www.w3.org/2000/svg"><path d="M14.215 14.213H34.52v20.305H14.215zm0 151.268H34.52v20.305H14.215zM165.48 14.213h20.305v20.305H165.48z"/><path fill-rule="evenodd" clip-rule="evenodd" d="M48.73 0H0v48.73h48.73V0Zm-7.104 7.614H7.616v34.01h34.01V7.614Zm7.104 143.655H0v48.73h48.73v-48.73Zm-7.104 7.106H7.616v34.01h34.01v-34.01ZM200 0h-48.73v48.73H200V0Zm-7.613 7.614h-34.01v34.01h34.01V7.614Z"/><path d="M61.926 0h21.32v7.107h-21.32V0ZM89.34 0h7.106v7.107H89.34V0ZM61.926 14.213h21.32v7.107h-21.32v-7.107ZM54.82 21.32h7.107v13.198H54.82V21.32Zm14.215 0h14.213v7.106H69.035V21.32Zm-7.109 13.198h7.106v7.106h-7.106v-7.106Zm-7.106 7.106h7.107v7.107H54.82v-7.107Z"/><path d="M61.926 48.731h7.106v13.198h-7.106V48.73Zm7.109 6.091h7.107v14.213h-7.107V54.822Zm-7.109 14.213h7.106v7.107h-7.106v-7.107Zm14.214 0h14.214v7.107H76.14v-7.107Zm-7.105 7.107h14.213v7.107H69.035v-7.107ZM34.52 83.249h41.624v6.09H34.519v-6.09Zm0 6.091h7.106v7.106H34.52V89.34Zm14.21 0h27.411v7.106h-27.41V89.34Zm-7.105 7.106h7.107v7.107h-7.107v-7.107Zm7.105 7.107h7.107v7.106H48.73v-7.106Zm13.196 7.107h7.106v7.106h-7.106v-7.106Zm-6.09 7.106h6.091v6.091h-6.091v-6.091Zm13.199 0h7.107v6.091h-7.107v-6.091Zm7.105 13.198h7.107v13.198h-7.106v-13.198Zm7.11-7.107h26.396v7.107H83.25v-7.107Zm13.2 7.107h20.304v7.106H96.449v-7.106Zm7.105 7.107h7.106v20.304h-7.106v-20.304ZM89.34 151.269h14.213v7.106H89.34v-7.106Zm-6.09-7.107h13.198v7.107H83.25v-7.107Zm0 14.213h13.198v6.091H83.25v-6.091Zm-14.215 6.091h27.411v7.107h-27.41v-7.107ZM54.82 144.162h21.32v7.107H54.82v-7.107Zm0 7.107h7.107v7.106H54.82v-7.106Zm0 7.106h14.214v6.091H54.82v-6.091Zm14.215-7.106h7.107v7.106h-7.107v-7.106Zm-7.109 20.304h14.213v7.106H61.926v-7.106Zm0 7.107h27.41v7.106h-27.41v-7.106Zm41.629 14.213h20.304v7.106h-20.304v-7.106Zm13.195-14.213h7.107v7.106h-7.107v-7.106Zm-13.195-7.107h7.106v14.213h-7.106v-14.213Zm20.304 14.213h7.107v7.107h-7.107v-7.107Zm7.106 7.107h7.106v7.106h-7.106v-7.106Zm7.105-14.213h7.107v7.106h-7.107v-7.106Zm7.11-7.107h7.106v7.106h-7.106v-7.106Zm46.695 14.213h7.107v7.107h-7.107v-7.107Zm-46.695 7.107h13.198v7.106H145.18v-7.106Zm19.285 0h7.106v7.106h-7.106v-7.106Zm14.211 0h7.106v7.106h-7.106v-7.106Zm-7.102-7.107h14.213v7.107h-14.213v-7.107Zm-19.293-7.106h39.594v7.106h-39.594v-7.106Zm-97.461 7.106h7.107v7.107H54.82v-7.107Zm0 7.107h14.214v7.106H54.82v-7.106Zm14.215-7.107h14.213v7.107H69.035v-7.107Zm7.105 7.107h7.107v7.106h-7.106v-7.106Zm-14.214-69.036h14.213v7.107H61.926v-7.107Zm-13.196 7.107h20.305v7.106H48.731v-7.106Zm-7.105 7.107h27.411v6.091H41.625v-6.091Zm-13.199-20.305h7.106v6.091h-7.106v-6.091Zm0-14.213h13.198v7.106H28.426v-7.106Zm6.094 7.107h21.32v7.106H34.52v-7.106Zm-20.305 0h14.213v7.106H14.215v-7.106Zm21.32 13.197h13.198v7.107H35.535v-7.107Zm-28.43 0H21.32v7.107H7.105v-7.107Zm14.215 7.107h20.305v7.106H21.32v-7.106Zm0 7.107h7.107v6.091H21.32v-6.091Zm34.516-41.625h7.107v7.107h-7.107v-7.107Zm13.199 0h7.107v7.107h-7.107v-7.107ZM48.73 61.929h13.198v7.106H48.731V61.93Zm-40.609 0h12.183v7.106H8.12V61.93Zm12.184 7.106h14.213v7.107H20.305v-7.107Zm7.109 7.107h7.107v7.107h-7.107v-7.107ZM7.105 75.126h7.107v7.107H7.105v-7.107ZM0 82.233h7.107v7.107H0v-7.107Z"/><path d="M0 109.645h7.107v34.517H0v-34.517Zm0-13.199h7.107v7.107H0v-7.107Z"/><path d="M7.105 89.34h7.107v14.213H7.105V89.34Zm7.11-7.107h7.106v14.213h-7.106V82.234ZM34.52 54.822h21.32v7.107H34.52v-7.107Zm-34.52 0h14.213v7.107H0v-7.107Zm41.625 14.213h14.213v7.107H41.625v-7.107Zm7.105 7.107h13.198v7.107H48.731v-7.107Zm20.305-47.716h7.107v20.305h-7.107V28.426ZM103.555 0h7.106v7.107h-7.106V0Zm13.195 0h14.213v7.107H116.75V0Z"/><path d="M116.75 7.106h7.107v7.107h-7.107V7.106Zm20.305 0h7.106v7.107h-7.106V7.106Z"/><path d="M129.949 14.213h14.213v7.107h-14.213v-7.107Zm0 7.107h14.213v7.106h-14.213V21.32Z"/><path d="M110.66 27.411h26.396v7.107H110.66V27.41Z"/><path d="M116.75 20.305h7.107v7.106h-7.107v-7.106Zm20.305 14.213h7.106v21.32h-7.106v-21.32Zm-13.196 7.106h7.107v7.107h-7.107v-7.107Zm-14.214-7.106h14.213v7.106h-14.213v-7.106ZM96.45 7.106h7.106v7.107h-7.107V7.106Zm-20.31 0h13.198v7.107H76.141V7.106ZM96.45 21.32h7.106v7.106h-7.107V21.32Zm-13.2 7.106h13.198v6.092H83.25v-6.092Zm7.106 6.092h13.197v7.106H90.356v-7.106Zm6.094 7.106h7.106v7.107h-7.107v-7.107Zm-13.2 0h7.107v20.304H83.25V41.624Z"/><path d="M90.356 48.731h6.09v7.106h-6.09v-7.106Zm6.094 7.106h7.106v13.198h-7.107V55.837Zm0 20.305h7.106v40.609h-7.107V76.142Zm-7.11 6.091h7.106v28.427H89.34V82.233Z"/><path d="M103.555 82.233h7.106v7.107h-7.106v-7.107Zm0 14.213h7.106v14.213h-7.106V96.446Zm7.105-7.106h6.092v7.106h-6.092V89.34Z"/><path d="M116.75 82.233h7.107v21.32h-7.107v-21.32Zm-7.105 21.32h7.106v20.304h-7.106v-20.304Z"/><path d="M116.75 116.751h7.107v14.213h-7.107v-14.213Zm7.109 7.106h7.107v7.107h-7.107v-7.107Z"/><path d="M130.965 116.751h7.106v27.411h-7.106v-27.411Z"/><path d="M138.07 116.751h7.107v54.822h-7.107v-54.822Zm7.11 14.213h6.091v13.198h-6.091v-13.198Zm6.086-13.198h7.106v13.198h-7.106v-13.198Zm0-14.213h7.106v7.106h-7.106v-7.106Zm7.109 7.107h7.107v13.198h-7.107V110.66Zm14.211 0h6.091v6.091h-6.091v-6.091Zm-7.106-7.107h7.107v7.106h-7.107v-7.106Zm7.106-7.107h6.091v7.107h-6.091v-7.107Zm-7.106-7.106h7.107v7.106h-7.107V89.34Zm7.106-14.214h7.107v7.107h-7.107v-7.107Zm19.289 7.107h7.107v14.213h-7.107V82.234Z"/><path d="M178.676 96.446h7.106v27.411h-7.106v-27.41Zm6.094-7.106h7.106v7.106h-7.106V89.34Zm7.105 14.213h7.107v7.106h-7.107v-7.106Zm0 20.304h7.107v7.107h-7.107v-7.107Zm-20.301 0h7.107v7.107h-7.107v-7.107Zm-20.308 13.198h14.213v7.107h-14.213v-7.107Zm27.41 0h20.304v7.107h-20.304v-7.107Zm-6.09 7.107h6.091v7.107h-6.091v-7.107Zm0 7.107h13.198v6.091h-13.198v-6.091Zm0 20.304h13.198v7.106h-13.198v-7.106Zm0-6.092h7.107v6.092h-7.107v-6.092Zm12.184-8.121h7.106v7.106h-7.106v-7.106Zm7.105 7.106h7.107v14.213h-7.107v-14.213Zm-46.695 0h20.304v7.107H145.18v-7.107Zm6.086-13.197h7.106v7.106h-7.106v-7.106Zm-34.516 0h21.32v7.106h-21.32v-7.106Zm7.109 13.197h14.214v7.107h-14.214v-7.107Zm0-20.304h7.107v7.107h-7.107v-7.107Z"/><path d="M165.48 116.751h7.107v54.822h-7.107v-54.822Zm20.305 0h13.198v7.107h-13.198v-7.107Zm-27.41-54.822h7.107v7.106h-7.107V61.93Z"/><path d="M165.48 54.822h7.107v14.213h-7.107V54.822Z"/><path d="M172.586 54.822h6.091v7.107h-6.091v-7.107Zm6.09 7.107h14.213v7.106h-14.213V61.93Zm-20.301 13.197h7.107V89.34h-7.107V75.126Zm-7.109 7.107h7.106v14.213h-7.106V82.234Z"/><path d="M123.859 89.34h27.411v7.106h-27.411V89.34Zm0 14.213h20.305v7.106h-20.305v-7.106Zm13.196-7.107h7.106v7.107h-7.106v-7.107Zm0-27.411h7.106V89.34h-7.106V69.035Zm7.109-7.106h7.107v20.304h-7.107V61.93Z"/><path d="M129.949 75.126h7.107v7.107h-7.107v-7.107ZM116.75 54.822h7.107v21.32h-7.107v-21.32Zm7.109 0h7.107v14.213h-7.107V54.822Z"/><path d="M130.965 54.822h6.091v14.213h-6.091V54.822ZM82.234 89.34h7.107v7.106h-7.107V89.34Zm0 14.213h7.107v13.198h-7.107v-13.198Zm21.321-54.822h6.091v27.411h-6.091V48.731Z"/><path d="M109.645 41.624h7.106v13.198h-7.106V41.624Zm-6.09-27.411h7.106v20.305h-7.106V14.213Z"/></svg><svg viewBox="0 0 96 96" id="qr-mini" xmlns="http://www.w3.org/2000/svg"><path d="M6.824 6.822h9.746v9.746H6.824zm0 72.61h9.746v9.746H6.824zM79.43 6.822h9.746v9.746H79.43z"/><path fill-rule="evenodd" clip-rule="evenodd" d="M23.39 0H0v23.39h23.39V0Zm-3.41 3.655H3.653V19.98h16.325V3.655Zm3.41 68.954H0v23.39h23.39V72.61Zm-3.41 3.411H3.653v16.325h16.325V76.02ZM96 0H72.61v23.39H96V0Zm-3.655 3.655H76.02V19.98h16.325V3.655Z"/><path d="M29.727 0H39.96v3.411H29.727V0Zm13.156 0h3.411v3.411h-3.411V0ZM29.727 6.822H39.96v3.411H29.727v-3.41Zm-3.411 3.411h3.412v6.335h-3.412v-6.335Zm6.821 0h6.822v3.412h-6.822v-3.412Zm-3.41 6.335h3.41v3.412h-3.41v-3.412Zm-3.411 3.412h3.412v3.41h-3.412v-3.41Zm3.411 3.411h3.41v6.335h-3.41v-6.335Zm3.41 2.923h3.41v6.823h-3.41v-6.823Zm-3.41 6.823h3.41v3.41h-3.41v-3.41Zm6.82 0h6.822v3.41h-6.822v-3.41Zm-3.41 3.411h6.822v3.411h-6.822v-3.411ZM16.57 39.959h19.98v2.924H16.57v-2.924Zm0 2.924h3.412v3.411H16.57v-3.41Zm6.82 0h13.158v3.411H23.391v-3.41Z"/><path d="M19.98 46.294h3.412v3.412H19.98v-3.412Zm3.41 3.412h3.412v3.41H23.39v-3.41Zm6.337 3.411h3.41v3.41h-3.41v-3.41ZM26.8 56.528h2.925v2.924H26.8v-2.924Zm6.337 0h3.41v2.924h-3.41v-2.924Zm3.41 6.335h3.411v6.335h-3.411v-6.335Zm3.413-3.411h12.671v3.411h-12.67v-3.41Zm6.333 3.411h9.746v3.411h-9.746v-3.41Zm3.414 3.411h3.411v9.747h-3.411v-9.747Zm-6.824 6.335h6.822v3.411h-6.822v-3.41Zm-2.923-3.411h6.336v3.41h-6.335v-3.41Zm0 6.822h6.336v2.924h-6.335V76.02Zm-6.823 2.924h13.157v3.411H33.137v-3.411Zm-6.821-9.746H36.55v3.41H26.316v-3.41Zm0 3.411h3.412v3.411h-3.412v-3.41Zm0 3.411h6.823v2.924h-6.823V76.02Zm6.821-3.411h3.41v3.411h-3.41v-3.41Zm-3.41 9.746h6.822v3.411h-6.822v-3.411Zm0 3.412h13.157v3.41H29.727v-3.41Zm19.98 6.822h9.746V96h-9.746v-3.411Zm6.333-6.822h3.41v3.41h-3.41v-3.41Zm-6.333-3.412h3.411v6.822h-3.411v-6.822Zm9.746 6.823h3.411v3.41h-3.41v-3.41Zm3.41 3.411h3.411V96h-3.41v-3.411Zm3.41-6.822h3.412v3.41h-3.412v-3.41Zm3.411-3.412h3.41v3.411h-3.41v-3.411Zm22.418 6.823h3.41v3.41h-3.41v-3.41Zm-22.418 3.411h6.335V96h-6.335v-3.411Zm9.261 0h3.412V96h-3.412v-3.411Zm6.821 0h3.41V96h-3.41v-3.411Zm-3.41-3.411h6.822v3.41h-6.822v-3.41Zm-9.258-3.411h19.005v3.41H73.098v-3.41Zm-46.782 3.411h3.412v3.41h-3.412v-3.41Zm0 3.411h6.823V96h-6.823v-3.411Zm6.821-3.411h6.822v3.41h-6.822v-3.41Zm3.41 3.411h3.411V96h-3.411v-3.411Z"/><path d="M29.727 59.452h6.822v3.411h-6.822v-3.41Zm-6.337 3.411h9.747v3.411H23.39v-3.41Zm-3.41 3.411h13.158v2.924H19.98v-2.924Zm-6.335-9.746h3.41v2.924h-3.41v-2.924Zm0-6.822h6.335v3.41h-6.335v-3.41Zm2.925 3.411h10.234v3.41H16.57v-3.41Zm-9.746 0h6.823v3.41H6.824v-3.41Zm10.231 6.335h6.335v3.411h-6.335v-3.41Zm-13.645 0h6.822v3.411H3.41v-3.41Zm6.824 3.411h9.747v3.411h-9.747v-3.41Zm0 3.411h3.412v2.924h-3.412v-2.924ZM26.8 46.294h3.412v3.412H26.8v-3.412Zm6.337 0h3.41v3.412h-3.41v-3.412ZM23.39 29.726h6.336v3.41H23.39v-3.41Zm-19.492 0h5.848v3.41H3.898v-3.41Zm5.848 3.411h6.822v3.41H9.746v-3.41Zm3.41 3.411h3.411v3.411h-3.41v-3.411Zm-9.746-.487h3.411v3.411h-3.41v-3.411ZM0 39.472h3.411v3.411H0v-3.41Z"/><path d="M0 52.63h3.411v16.568H0V52.629Zm0-6.336h3.411v3.412H0v-3.412Z"/><path d="M3.41 42.883h3.411v6.823h-3.41v-6.823Zm3.414-3.411h3.411v6.822h-3.41v-6.822Zm9.746-13.158h10.234v3.412H16.57v-3.412Zm-16.57 0h6.822v3.412H0v-3.412Zm19.98 6.823h6.823v3.41H19.98v-3.41Zm3.41 3.411h6.336v3.411H23.39v-3.411Zm9.747-22.903h3.41v9.746h-3.41v-9.746ZM49.707 0h3.411v3.411h-3.411V0Zm6.333 0h6.821v3.411H56.04V0Zm0 3.411h3.41v3.411h-3.41v-3.41Zm9.745 0h3.411v3.411h-3.41v-3.41Zm-3.41 3.411h6.822v3.411h-6.822v-3.41Zm0 3.411h6.822v3.412h-6.822v-3.412Z"/><path d="M53.117 13.157h12.67v3.411h-12.67v-3.41Zm2.923-3.411h3.41v3.411h-3.41v-3.41Zm9.745 6.822h3.411v10.234h-3.41V16.568Zm-6.332 3.412h3.411v3.41h-3.41v-3.41Zm-6.824-3.412h6.822v3.412H52.63v-3.412ZM46.293 3.411h3.411v3.411h-3.411v-3.41Zm-9.746 0h6.335v3.411h-6.335v-3.41Zm9.746 6.822h3.411v3.412h-3.411v-3.412Zm-6.333 3.412h6.336v2.924h-6.335v-2.924Z"/><path d="M43.371 16.568h6.335v3.412h-6.335v-3.412Zm2.922 3.412h3.411v3.41h-3.411v-3.41Zm-6.333 0h3.412v9.746h-3.411V19.98Z"/><path d="M43.371 23.391h2.924v3.411h-2.924v-3.41Zm2.922 3.411h3.411v6.335h-3.411v-6.335Zm0 9.746h3.411V56.04h-3.411V36.548Z"/><path d="M42.883 39.472h3.411v13.645h-3.411V39.472Zm6.824 0h3.411v3.411h-3.411v-3.41Zm0 6.822h3.411v6.823h-3.411v-6.823ZM53.117 42.883h2.924v3.411h-2.924v-3.41Z"/><path d="M56.04 39.472h3.41v10.234h-3.41V39.472Zm-3.411 10.234h3.411v9.746h-3.41v-9.746Zm3.411 6.335h3.41v6.822h-3.41v-6.822Zm3.413 3.411h3.411v3.411h-3.41v-3.41Z"/><path d="M62.863 56.041h3.411v13.157h-3.41V56.041Z"/><path d="M66.273 56.041h3.412v26.315h-3.412V56.04Z"/><path d="M69.684 62.863h2.924v6.335h-2.924v-6.335Zm2.926-6.335h3.41v6.335h-3.41v-6.335Zm0-6.822h3.41v3.41h-3.41v-3.41Zm3.41 3.411h3.41v6.335h-3.41v-6.335Zm6.824 0h2.924v2.924h-2.924v-2.924Zm-3.414-3.411h3.41v3.41h-3.41v-3.41Zm3.414-3.412h2.924v3.412h-2.924v-3.412Zm-3.414-3.411h3.41v3.411h-3.41v-3.41Zm3.414-6.822h3.41v3.411h-3.41v-3.411Zm9.258 3.411h3.41v6.822h-3.41v-6.822Z"/><path d="M85.766 46.294h3.41v13.158h-3.41V46.294Z"/><path d="M88.691 42.883h3.412v3.411H88.69v-3.41Zm3.411 6.823h3.41v3.41h-3.41v-3.41Zm0 9.746h3.41v3.411h-3.41v-3.41Zm-9.746 0h3.41v3.411h-3.41v-3.41Zm-9.746 6.335h6.822v3.41h-6.823v-3.41Zm13.156 0h9.746v3.41h-9.746v-3.41Zm-2.922 3.411h2.924v3.41h-2.924v-3.41Zm0 3.411h6.335v2.924h-6.335v-2.924Zm0 9.746h6.335v3.411h-6.335v-3.411Z"/><path d="M82.844 79.432h3.41v2.924h-3.41v-2.924Zm5.847-3.899h3.412v3.41H88.69v-3.41Zm3.411 3.411h3.41v6.822h-3.41v-6.822Zm-22.418 0h9.746v3.411h-9.746v-3.411Zm2.926-6.335h3.41v3.411h-3.41v-3.41Zm-16.57 0h10.233v3.411H56.039v-3.41Zm3.413 6.335h6.822v3.411h-6.822v-3.411Zm0-9.746h3.411v3.41h-3.41v-3.41ZM79.43 56.041h3.41v26.315h-3.41V56.04Zm9.746 0h6.335v3.411h-6.335v-3.411ZM76.02 29.726h3.41v3.41h-3.41v-3.41Zm3.41-3.412h3.41v6.823h-3.41v-6.823Zm3.414 0h2.924v3.412h-2.924v-3.412Z"/><path d="M85.766 29.726h6.822v3.41h-6.822v-3.41Zm-9.746 6.335h3.41v6.822h-3.41v-6.822Zm-3.41 3.411h3.41v6.822h-3.41v-6.822Zm-13.157 3.411H72.61v3.411H59.454v-3.41Zm0 6.823H69.2v3.41h-9.746v-3.41Z"/><path d="M65.785 46.294h3.411v3.412h-3.41v-3.412Zm0-13.157h3.411v9.746h-3.41v-9.746Zm3.415-3.411h3.41v9.746H69.2v-9.746Z"/><path d="M62.375 36.061h3.411v3.411h-3.411v-3.411Zm-6.335-9.747h3.41v10.234h-3.41V26.314Zm3.413 0h3.411v6.823h-3.41v-6.823Z"/><path d="M62.863 26.314h2.924v6.823h-2.924v-6.823Zm-23.39 16.569h3.41v3.411h-3.41v-3.41Zm0 6.823h3.41v6.335h-3.41v-6.335Zm10.234-26.315h2.924v13.157h-2.924V23.391Z"/><path d="M52.629 19.98h3.411v6.334h-3.41V19.98ZM49.707 6.822h3.411v9.747h-3.411V6.822Z"/></svg></svg>