<svg width="1170" height="452" viewBox="0 0 1170 452" fill="none" xmlns="http://www.w3.org/2000/svg">
<path fill-rule="evenodd" clip-rule="evenodd" d="M205.391 136C204.059 136 203.393 136 202.789 136.197C202.185 136.394 201.615 136.809 200.475 137.64C184.627 149.187 165.109 156 144 156C93.735 156 52.4928 117.369 48.3434 68.1775C48.006 64.1775 47.8373 62.1775 46.631 61.1146C45.4247 60.0517 43.5788 60.1294 39.8871 60.2847C24.9754 60.9122 15.8217 62.9238 9.37258 69.3729C0 78.7455 0 93.8304 0 124V388C0 418.17 0 433.255 9.37258 442.628C18.7452 452 33.8301 452 64 452H1106C1136.17 452 1151.25 452 1160.63 442.628C1170 433.255 1170 418.17 1170 388V124C1170 93.8304 1170 78.7455 1160.63 69.3729C1154.15 62.8969 1144.95 60.8955 1129.93 60.277C1126.35 60.1296 1124.56 60.0559 1123.35 61.1206C1123.27 61.1926 1123.19 61.2712 1123.11 61.3497C1122 62.5104 1122 64.3403 1122 68.0003V68.0003C1122 94.1877 1122 107.281 1116.11 116.9C1112.81 122.282 1108.28 126.808 1102.9 130.106C1093.28 136 1080.19 136 1054 136H205.391Z" fill="white"/>
</svg>
